<svg xmlns="http://www.w3.org/2000/svg"><style>:root svg:not(:target){display:none}</style><svg fill="none" id="icon-camera" viewBox="0 0 23 18"><path d="M19.187 7a1 1 0 1 1-2 0 1 1 0 0 1 2 0Z" fill="currentColor"></path><path fill-rule="evenodd" clip-rule="evenodd" d="M6.187 10a5 5 0 1 0 10 0 5 5 0 0 0-10 0Zm8 0a3 3 0 1 1-6 0 3 3 0 0 1 6 0Z" fill="currentColor"></path><path fill-rule="evenodd" clip-rule="evenodd" d="M6.124 2.845c.07-.098.15-.219.25-.381l.21-.347.085-.139C7.498.622 8.1 0 9.187 0h4c1.087 0 1.69.622 2.518 1.978l.084.139.211.347c.1.162.18.283.25.381.047.065.087.117.12.155h2.817a3 3 0 0 1 3 3v9a3 3 0 0 1-3 3h-16a3 3 0 0 1-3-3V6a3 3 0 0 1 3-3h2.816c.034-.038.074-.09.121-.155ZM3.187 5a1 1 0 0 0-1 1v9a1 1 0 0 0 1 1h16a1 1 0 0 0 1-1V6a1 1 0 0 0-1-1h-3c-.664 0-1.112-.364-1.56-.987a8.42 8.42 0 0 1-.329-.499 82.367 82.367 0 0 1-.226-.372l-.073-.12C13.546 2.282 13.274 2 13.187 2h-4c-.087 0-.36.282-.812 1.022l-.073.12-.226.372c-.123.2-.225.356-.328.5C7.299 4.635 6.85 5 6.187 5h-3Z" fill="currentColor"></path></svg><svg fill="none" id="icon-cr" viewBox="0 0 17 18"><circle cx="8.5" cy="9" r="8.5" fill="#FFCF2D"></circle><path d="M6.168 11.612c-.901 0-1.59-.25-2.064-.752-.47-.501-.704-1.213-.704-2.136 0-.459.072-.867.216-1.224.144-.363.341-.667.592-.912.25-.25.55-.44.896-.568a3.232 3.232 0 0 1 1.128-.192c.235 0 .448.019.64.056.192.032.36.072.504.12a2.237 2.237 0 0 1 .568.248l-.36 1.008c-.17-.09-.37-.168-.6-.232a2.8 2.8 0 0 0-.768-.096 1.74 1.74 0 0 0-.568.096 1.294 1.294 0 0 0-.488.312c-.139.139-.25.32-.336.544a2.3 2.3 0 0 0-.128.816c0 .256.027.496.08.72.059.219.15.408.272.568.128.16.293.288.496.384.203.09.448.136.736.136.181 0 .344-.01.488-.032.144-.021.272-.045.384-.072.112-.032.21-.067.296-.104.085-.037.163-.072.232-.104l.344 1c-.176.107-.424.203-.744.288-.32.085-.69.128-1.112.128Zm4.283-5.72c.832 0 1.47.15 1.912.448.443.293.665.752.665 1.376 0 .39-.091.707-.273.952-.176.24-.432.43-.768.568a7.1 7.1 0 0 1 .352.48c.123.176.243.363.36.56.123.192.24.395.353.608.112.208.216.413.312.616h-1.4a65.563 65.563 0 0 0-.313-.552 9.067 9.067 0 0 0-.32-.544 10.055 10.055 0 0 0-.32-.496 5.055 5.055 0 0 0-.32-.432h-.616V11.5H8.829V6.036a7.08 7.08 0 0 1 .84-.112c.293-.021.554-.032.784-.032Zm.072 1.064c-.09 0-.173.003-.248.008l-.2.016v1.504h.353c.469 0 .805-.059 1.007-.176.203-.117.304-.317.304-.6 0-.272-.104-.464-.312-.576-.202-.117-.503-.176-.903-.176Z" fill="#000"></path></svg><svg fill="none" id="icon-diamond" viewBox="0 0 20 18"><path d="M10 1.5h5l4 5m-9-5 3 5m-3-5H5l-4 5m9-5-3 5m12 0-9 10m9-10h-6m-3 10 3-10m-3 10-9-10m9 10-3-10m6 0H7m-6 0h6" stroke="currentColor" stroke-width="1.5"></path></svg><svg fill="none" id="icon-eye" viewBox="0 0 23 17"><path fill-rule="evenodd" clip-rule="evenodd" d="M7.187 8.804a4 4 0 1 0 8 0 4 4 0 0 0-8 0Zm6 0a2 2 0 1 1-4 0 2 2 0 0 1 4 0Z" fill="currentColor"></path><path fill-rule="evenodd" clip-rule="evenodd" d="M11.187.804c2.728 0 5.336 1.43 7.766 3.781.83.802 1.58 1.658 2.24 2.515.399.517.682.923.836 1.165l.345.54-.345.538c-.154.242-.437.649-.836 1.166-.66.856-1.41 1.712-2.24 2.514-2.43 2.35-5.038 3.781-7.766 3.781-2.728 0-5.336-1.43-7.766-3.781a23.303 23.303 0 0 1-2.24-2.514 17.493 17.493 0 0 1-.836-1.166L0 8.804l.345-.539C.5 8.023.782 7.617 1.18 7.1c.66-.857 1.41-1.713 2.24-2.515 2.43-2.35 5.038-3.78 7.766-3.78Zm8.422 7.517a21.334 21.334 0 0 0-2.046-2.298c-2.093-2.024-4.27-3.219-6.376-3.219-2.105 0-4.282 1.195-6.376 3.219a21.326 21.326 0 0 0-2.408 2.781 21.32 21.32 0 0 0 2.408 2.781c2.094 2.025 4.271 3.22 6.376 3.22 2.105 0 4.283-1.195 6.376-3.22a21.327 21.327 0 0 0 2.408-2.78c-.11-.153-.231-.315-.362-.484Z" fill="currentColor"></path></svg><svg fill="none" id="icon-gear" viewBox="0 0 23 23"><path fill-rule="evenodd" clip-rule="evenodd" d="M11.187 15.804a4 4 0 1 1 0-8 4 4 0 0 1 0 8Zm2-4a2 2 0 1 1-4 0 2 2 0 0 1 4 0Z" fill="currentColor"></path><path fill-rule="evenodd" clip-rule="evenodd" d="m17.843 20.701 2.217-2.217-.78-2.837.34-.812 2.567-1.449v-3.135l-2.56-1.455-.334-.811.79-2.838-2.219-2.216-2.837.78-.81-.34-1.45-2.567H9.633l-1.454 2.56-.811.335-2.838-.792-2.215 2.215.78 2.838-.34.81-2.567 1.45v3.134l2.558 1.458.335.812-.791 2.837 2.216 2.216 2.838-.78.81.34 1.45 2.566h3.134l1.457-2.558.811-.334 2.838.79Zm.197-7.271-.872 2.082.655 2.38-.568.57-2.376-.663-2.083.86-1.222 2.144h-.804l-1.212-2.146-2.08-.872-2.382.655-.567-.567.662-2.376-.86-2.083-2.144-1.222v-.805l2.147-1.211.872-2.08-.655-2.382.566-.567 2.376.663 2.084-.86 1.22-2.146h.803l1.212 2.147 2.08.872 2.382-.655.569.568-.662 2.375.86 2.084 2.146 1.22v.803L18.04 13.43Z" fill="currentColor"></path></svg><svg fill="none" id="icon-gift" viewBox="0 0 20 20"><path fill-rule="evenodd" clip-rule="evenodd" d="M3.497 5C3.169 4.463 3 3.803 3 3c0-1.583 1.19-3 3-3 1.812 0 3.273 1.214 4 3.114C10.727 1.214 12.188 0 14 0c1.81 0 3 1.417 3 3 0 .803-.169 1.463-.497 2H18a2 2 0 0 1 2 2v2a2 2 0 0 1-2 2v7a2 2 0 0 1-2 2H4a2 2 0 0 1-2-2v-7a2 2 0 0 1-2-2V7a2 2 0 0 1 2-2h1.497ZM9 7H2v2h7V7Zm9 2h-7V7h7v2Zm-9 9v-7H4v7h5Zm7 0h-5v-7h5v7ZM6 2c-.62 0-1 .452-1 1 0 1.253 1.017 1.85 3.43 1.974C8.16 3.112 7.161 2 6 2Zm5.5 2.974C11.768 3.112 12.767 2 13.93 2c.62 0 1 .452 1 1 0 1.253-1.018 1.85-3.43 1.974Z" fill="currentColor"></path></svg><svg fill="none" id="icon-heart" viewBox="0 0 23 21"><path fill-rule="evenodd" clip-rule="evenodd" d="M15.74.804c-1.447 0-2.38.172-3.45.692a6.175 6.175 0 0 0-1.113.695 6.306 6.306 0 0 0-1.068-.663C9.019.992 8.037.804 6.642.804 2.903.804.187 3.882.187 7.88c0 3.02 1.694 5.935 4.849 8.755 1.656 1.48 3.77 2.945 5.285 3.724l.866.446.866-.446c1.515-.779 3.63-2.244 5.285-3.724 3.155-2.82 4.849-5.736 4.849-8.755 0-3.955-2.742-7.06-6.447-7.075Zm4.447 7.075c0 2.366-1.414 4.8-4.186 7.277-1.512 1.351-3.455 2.702-4.814 3.41-1.359-.708-3.302-2.058-4.814-3.41-2.772-2.477-4.186-4.911-4.186-7.277 0-2.953 1.884-5.087 4.455-5.087 1.11 0 1.793.13 2.58.517.465.229.876.53 1.232.907l.735.78.73-.786c.363-.392.78-.7 1.25-.929.764-.372 1.405-.49 2.567-.49 2.54.011 4.451 2.176 4.451 5.088Z" fill="currentColor"></path></svg><svg fill="none" id="icon-logout" viewBox="0 0 21 21"><path d="m7.48 6.51 3.293 3.293H.187v2h10.586L7.48 15.096l1.414 1.414 5.707-5.707-5.707-5.707L7.48 6.51Z" fill="currentColor"></path><path d="M18.187.803h-4v2h4v16h-4v2h4a2 2 0 0 0 2-2v-16a2 2 0 0 0-2-2Z" fill="currentColor"></path></svg><svg fill="none" id="icon-read-message" viewBox="0 0 21 20"><path fill-rule="evenodd" clip-rule="evenodd" d="M4.187 19.804 10.274 16h7.913a2 2 0 0 0 2-2V2a2 2 0 0 0-2-2h-16a2 2 0 0 0-2 2v12a2 2 0 0 0 2 2h2v3.804ZM9.7 14l-3.513 2.196V14h-4V2h16v12H9.7Z" fill="currentColor"></path><path fill="currentColor" d="M5.187 5h10v2h-10zM5.187 9h10v2h-10z"></path></svg><svg fill="none" id="icon-type-message" viewBox="0 0 20 20"><path fill-rule="evenodd" clip-rule="evenodd" d="M4 19.804 10.087 16H18a2 2 0 0 0 2-2V2a2 2 0 0 0-2-2H2a2 2 0 0 0-2 2v12a2 2 0 0 0 2 2h2v3.804ZM9.513 14 6 16.196V14H2V2h16v12H9.513ZM5 11V9h7v2H5Zm0-6v2h9V5H5Z" fill="currentColor"></path></svg><svg fill="none" id="icon-user" viewBox="0 0 23 22"><path fill-rule="evenodd" clip-rule="evenodd" d="M11.187 14c-2.24 0-4-1.573-4-5 0-2.244 1.58-4 4-4 2.414 0 4 1.922 4 4.2 0 3.28-1.782 4.8-4 4.8Zm-2-5c0 2.27.818 3 2 3 1.178 0 2-.702 2-2.8 0-1.25-.784-2.2-2-2.2-1.266 0-2 .816-2 2Z" fill="currentColor"></path><path fill-rule="evenodd" clip-rule="evenodd" d="M11.187 22c-6.075 0-11-4.925-11-11s4.925-11 11-11 11 4.925 11 11-4.925 11-11 11Zm7.4-5.875a9 9 0 1 0-14.799 0C4.913 14.638 7.558 14 11.187 14c3.63 0 6.274.638 7.4 2.125Zm-1.435 1.615c-.293-1.053-2.396-1.74-5.965-1.74-3.57 0-5.672.687-5.965 1.74A8.966 8.966 0 0 0 11.187 20a8.966 8.966 0 0 0 5.965-2.26Z" fill="currentColor"></path></svg></svg>