<svg width="109" height="44" fill="none" xmlns="http://www.w3.org/2000/svg"><path d="M23.064 27.568V34H.84V.736h7.488v26.832h14.736Zm27.959-6.24c0 1.984-.288 3.808-.864 5.472-.576 1.632-1.408 3.04-2.496 4.224-1.088 1.152-2.4 2.048-3.936 2.688-1.504.64-3.2.96-5.088.96-1.856 0-3.552-.32-5.088-.96a11.445 11.445 0 0 1-3.888-2.688c-1.088-1.184-1.936-2.592-2.544-4.224-.608-1.664-.912-3.488-.912-5.472 0-1.984.304-3.792.912-5.424.64-1.632 1.504-3.024 2.592-4.176a11.963 11.963 0 0 1 3.936-2.688c1.536-.64 3.2-.96 4.992-.96 1.824 0 3.488.32 4.992.96 1.536.64 2.848 1.536 3.936 2.688 1.088 1.152 1.936 2.544 2.544 4.176.608 1.632.912 3.44.912 5.424Zm-7.296 0c0-2.208-.448-3.936-1.344-5.184-.864-1.28-2.112-1.92-3.744-1.92-1.632 0-2.896.64-3.792 1.92-.896 1.248-1.344 2.976-1.344 5.184s.448 3.968 1.344 5.28c.896 1.28 2.16 1.92 3.792 1.92 1.632 0 2.88-.64 3.744-1.92.896-1.312 1.344-3.072 1.344-5.28Zm18.932-.768c0 4 1.616 6 4.848 6a7.15 7.15 0 0 0 2.064-.288 7.841 7.841 0 0 0 1.632-.672V14.176a11.27 11.27 0 0 0-1.248-.144c-.48-.064-1.04-.096-1.68-.096-1.888 0-3.296.624-4.224 1.872-.928 1.248-1.392 2.832-1.392 4.752Zm15.696 10.272c0 4.128-1.056 7.184-3.168 9.168-2.08 2.016-5.312 3.024-9.696 3.024-1.536 0-3.072-.144-4.608-.432a26.902 26.902 0 0 1-4.272-1.056l1.248-6c1.12.448 2.288.8 3.504 1.056 1.248.256 2.656.384 4.224.384 2.048 0 3.488-.448 4.32-1.344.864-.896 1.296-2.048 1.296-3.456v-.912a12.48 12.48 0 0 1-2.4.816c-.8.16-1.68.24-2.64.24-3.488 0-6.16-1.024-8.016-3.072-1.856-2.08-2.784-4.976-2.784-8.688 0-1.856.288-3.536.864-5.04.576-1.536 1.408-2.848 2.496-3.936 1.12-1.088 2.48-1.92 4.08-2.496 1.6-.608 3.408-.912 5.424-.912.864 0 1.744.048 2.64.144.928.064 1.84.16 2.736.288.896.128 1.744.288 2.544.48.832.16 1.568.336 2.208.528v21.216Zm30.324-9.504c0 1.984-.288 3.808-.864 5.472-.576 1.632-1.408 3.04-2.496 4.224-1.088 1.152-2.4 2.048-3.936 2.688-1.504.64-3.2.96-5.088.96-1.856 0-3.552-.32-5.088-.96a11.445 11.445 0 0 1-3.888-2.688c-1.088-1.184-1.936-2.592-2.544-4.224-.608-1.664-.912-3.488-.912-5.472 0-1.984.304-3.792.912-5.424.64-1.632 1.504-3.024 2.592-4.176a11.963 11.963 0 0 1 3.936-2.688c1.536-.64 3.2-.96 4.992-.96 1.824 0 3.488.32 4.992.96 1.536.64 2.848 1.536 3.936 2.688 1.088 1.152 1.936 2.544 2.544 4.176.608 1.632.912 3.44.912 5.424Zm-7.296 0c0-2.208-.448-3.936-1.344-5.184-.864-1.28-2.112-1.92-3.744-1.92-1.632 0-2.896.64-3.792 1.92-.896 1.248-1.344 2.976-1.344 5.184s.448 3.968 1.344 5.28c.896 1.28 2.16 1.92 3.792 1.92 1.632 0 2.88-.64 3.744-1.92.896-1.312 1.344-3.072 1.344-5.28Z" fill="#fff"/></svg>